<mxfile host="app.diagrams.net" agent="Mozilla/5.0 (Windows NT 10.0; Win64; x64) AppleWebKit/537.36 (KHTML, like Gecko) Chrome/133.0.0.0 Safari/537.36" version="26.0.14">
  <diagram name="PÃ¡gina-1" id="7jj-D7QKgP62pjIoDFZG">
    <mxGraphModel dx="1235" dy="1783" grid="1" gridSize="10" guides="1" tooltips="1" connect="1" arrows="1" fold="1" page="1" pageScale="1" pageWidth="827" pageHeight="1169" math="0" shadow="0">
      <root>
        <mxCell id="0" />
        <mxCell id="1" parent="0" />
        <mxCell id="vCwx7-z7giKHeCWRHlMr-38" style="edgeStyle=orthogonalEdgeStyle;rounded=0;orthogonalLoop=1;jettySize=auto;html=1;entryX=0.5;entryY=0;entryDx=0;entryDy=0;" edge="1" parent="1" target="vCwx7-z7giKHeCWRHlMr-35">
          <mxGeometry relative="1" as="geometry">
            <mxPoint x="180" y="339.5" as="targetPoint" />
            <mxPoint x="180" y="170" as="sourcePoint" />
            <Array as="points">
              <mxPoint x="180" y="287" />
            </Array>
          </mxGeometry>
        </mxCell>
        <mxCell id="vCwx7-z7giKHeCWRHlMr-1" value="1" style="ellipse;whiteSpace=wrap;html=1;" vertex="1" parent="1">
          <mxGeometry x="130" y="98" width="80" height="70" as="geometry" />
        </mxCell>
        <mxCell id="vCwx7-z7giKHeCWRHlMr-19" value="" style="endArrow=classic;html=1;rounded=0;entryX=0;entryY=0;entryDx=0;entryDy=0;" edge="1" parent="1" source="vCwx7-z7giKHeCWRHlMr-1" target="vCwx7-z7giKHeCWRHlMr-21">
          <mxGeometry width="50" height="50" relative="1" as="geometry">
            <mxPoint x="130" y="230" as="sourcePoint" />
            <mxPoint x="230" y="190" as="targetPoint" />
            <Array as="points" />
          </mxGeometry>
        </mxCell>
        <mxCell id="vCwx7-z7giKHeCWRHlMr-139" style="edgeStyle=orthogonalEdgeStyle;rounded=0;orthogonalLoop=1;jettySize=auto;html=1;entryX=0.5;entryY=0;entryDx=0;entryDy=0;" edge="1" parent="1" source="vCwx7-z7giKHeCWRHlMr-21" target="vCwx7-z7giKHeCWRHlMr-138">
          <mxGeometry relative="1" as="geometry" />
        </mxCell>
        <mxCell id="vCwx7-z7giKHeCWRHlMr-21" value="6" style="ellipse;whiteSpace=wrap;html=1;" vertex="1" parent="1">
          <mxGeometry x="260" y="207.5" width="80" height="70" as="geometry" />
        </mxCell>
        <mxCell id="vCwx7-z7giKHeCWRHlMr-22" value="e" style="text;html=1;align=center;verticalAlign=middle;resizable=0;points=[];autosize=1;strokeColor=none;fillColor=none;" vertex="1" parent="1">
          <mxGeometry x="220" y="155" width="30" height="30" as="geometry" />
        </mxCell>
        <mxCell id="vCwx7-z7giKHeCWRHlMr-23" value="8" style="ellipse;whiteSpace=wrap;html=1;" vertex="1" parent="1">
          <mxGeometry x="520" y="207.5" width="80" height="70" as="geometry" />
        </mxCell>
        <mxCell id="vCwx7-z7giKHeCWRHlMr-24" value="9" style="ellipse;whiteSpace=wrap;html=1;" vertex="1" parent="1">
          <mxGeometry x="650" y="205" width="80" height="70" as="geometry" />
        </mxCell>
        <mxCell id="vCwx7-z7giKHeCWRHlMr-25" value="" style="endArrow=classic;html=1;rounded=0;exitX=1;exitY=0.5;exitDx=0;exitDy=0;entryX=0;entryY=0.5;entryDx=0;entryDy=0;" edge="1" parent="1" source="vCwx7-z7giKHeCWRHlMr-23" target="vCwx7-z7giKHeCWRHlMr-24">
          <mxGeometry width="50" height="50" relative="1" as="geometry">
            <mxPoint x="609" y="237.5" as="sourcePoint" />
            <mxPoint x="630" y="243" as="targetPoint" />
          </mxGeometry>
        </mxCell>
        <mxCell id="vCwx7-z7giKHeCWRHlMr-27" value="7" style="ellipse;whiteSpace=wrap;html=1;" vertex="1" parent="1">
          <mxGeometry x="390" y="207.5" width="80" height="70" as="geometry" />
        </mxCell>
        <mxCell id="vCwx7-z7giKHeCWRHlMr-28" value="" style="endArrow=classic;html=1;rounded=0;exitX=1;exitY=0.5;exitDx=0;exitDy=0;entryX=0;entryY=0.5;entryDx=0;entryDy=0;" edge="1" parent="1" source="vCwx7-z7giKHeCWRHlMr-21" target="vCwx7-z7giKHeCWRHlMr-27">
          <mxGeometry width="50" height="50" relative="1" as="geometry">
            <mxPoint x="329.5" y="239.5" as="sourcePoint" />
            <mxPoint x="379" y="239.5" as="targetPoint" />
          </mxGeometry>
        </mxCell>
        <mxCell id="vCwx7-z7giKHeCWRHlMr-29" value="" style="endArrow=classic;html=1;rounded=0;exitX=1;exitY=0.5;exitDx=0;exitDy=0;entryX=0;entryY=0.5;entryDx=0;entryDy=0;" edge="1" parent="1">
          <mxGeometry width="50" height="50" relative="1" as="geometry">
            <mxPoint x="470" y="241" as="sourcePoint" />
            <mxPoint x="520" y="244" as="targetPoint" />
          </mxGeometry>
        </mxCell>
        <mxCell id="vCwx7-z7giKHeCWRHlMr-30" value="l" style="text;html=1;align=center;verticalAlign=middle;resizable=0;points=[];autosize=1;strokeColor=none;fillColor=none;" vertex="1" parent="1">
          <mxGeometry x="349" y="207.5" width="30" height="30" as="geometry" />
        </mxCell>
        <mxCell id="vCwx7-z7giKHeCWRHlMr-31" value="s" style="text;html=1;align=center;verticalAlign=middle;resizable=0;points=[];autosize=1;strokeColor=none;fillColor=none;" vertex="1" parent="1">
          <mxGeometry x="485" y="207.5" width="30" height="30" as="geometry" />
        </mxCell>
        <mxCell id="vCwx7-z7giKHeCWRHlMr-32" value="e" style="text;html=1;align=center;verticalAlign=middle;resizable=0;points=[];autosize=1;strokeColor=none;fillColor=none;" vertex="1" parent="1">
          <mxGeometry x="610" y="205" width="30" height="30" as="geometry" />
        </mxCell>
        <mxCell id="vCwx7-z7giKHeCWRHlMr-33" value="Fin elsees" style="text;html=1;align=center;verticalAlign=middle;resizable=0;points=[];autosize=1;strokeColor=none;fillColor=none;" vertex="1" parent="1">
          <mxGeometry x="985" y="205" width="80" height="30" as="geometry" />
        </mxCell>
        <mxCell id="vCwx7-z7giKHeCWRHlMr-34" value="Inicio" style="text;html=1;align=center;verticalAlign=middle;resizable=0;points=[];autosize=1;strokeColor=none;fillColor=none;" vertex="1" parent="1">
          <mxGeometry x="115" y="68" width="50" height="30" as="geometry" />
        </mxCell>
        <mxCell id="vCwx7-z7giKHeCWRHlMr-35" value="X" style="ellipse;whiteSpace=wrap;html=1;" vertex="1" parent="1">
          <mxGeometry x="140" y="292" width="80" height="70" as="geometry" />
        </mxCell>
        <mxCell id="vCwx7-z7giKHeCWRHlMr-39" value="10" style="ellipse;whiteSpace=wrap;html=1;" vertex="1" parent="1">
          <mxGeometry x="780" y="200" width="80" height="70" as="geometry" />
        </mxCell>
        <mxCell id="vCwx7-z7giKHeCWRHlMr-40" value="" style="endArrow=classic;html=1;rounded=0;exitX=1;exitY=0.5;exitDx=0;exitDy=0;entryX=0;entryY=0.5;entryDx=0;entryDy=0;" edge="1" parent="1" target="vCwx7-z7giKHeCWRHlMr-39">
          <mxGeometry width="50" height="50" relative="1" as="geometry">
            <mxPoint x="730" y="238" as="sourcePoint" />
            <mxPoint x="760" y="238" as="targetPoint" />
          </mxGeometry>
        </mxCell>
        <mxCell id="vCwx7-z7giKHeCWRHlMr-41" value="e" style="text;html=1;align=center;verticalAlign=middle;resizable=0;points=[];autosize=1;strokeColor=none;fillColor=none;" vertex="1" parent="1">
          <mxGeometry x="735" y="200" width="30" height="30" as="geometry" />
        </mxCell>
        <mxCell id="vCwx7-z7giKHeCWRHlMr-42" value="" style="ellipse;whiteSpace=wrap;html=1;" vertex="1" parent="1">
          <mxGeometry x="910" y="200" width="80" height="70" as="geometry" />
        </mxCell>
        <mxCell id="vCwx7-z7giKHeCWRHlMr-43" value="" style="endArrow=classic;html=1;rounded=0;exitX=1;exitY=0.5;exitDx=0;exitDy=0;entryX=0;entryY=0.5;entryDx=0;entryDy=0;" edge="1" parent="1" target="vCwx7-z7giKHeCWRHlMr-42">
          <mxGeometry width="50" height="50" relative="1" as="geometry">
            <mxPoint x="860" y="238" as="sourcePoint" />
            <mxPoint x="890" y="238" as="targetPoint" />
          </mxGeometry>
        </mxCell>
        <mxCell id="vCwx7-z7giKHeCWRHlMr-44" value="s" style="text;html=1;align=center;verticalAlign=middle;resizable=0;points=[];autosize=1;strokeColor=none;fillColor=none;" vertex="1" parent="1">
          <mxGeometry x="865" y="200" width="30" height="30" as="geometry" />
        </mxCell>
        <mxCell id="vCwx7-z7giKHeCWRHlMr-26" value="11" style="ellipse;whiteSpace=wrap;html=1;aspect=fixed;" vertex="1" parent="1">
          <mxGeometry x="920" y="205" width="60" height="60" as="geometry" />
        </mxCell>
        <mxCell id="vCwx7-z7giKHeCWRHlMr-53" value="" style="endArrow=classic;html=1;rounded=0;entryX=0.5;entryY=0;entryDx=0;entryDy=0;" edge="1" parent="1" source="vCwx7-z7giKHeCWRHlMr-23" target="vCwx7-z7giKHeCWRHlMr-55">
          <mxGeometry width="50" height="50" relative="1" as="geometry">
            <mxPoint x="620" y="352" as="sourcePoint" />
            <mxPoint x="660" y="322" as="targetPoint" />
          </mxGeometry>
        </mxCell>
        <mxCell id="vCwx7-z7giKHeCWRHlMr-55" value="" style="ellipse;whiteSpace=wrap;html=1;" vertex="1" parent="1">
          <mxGeometry x="520" y="322" width="80" height="70" as="geometry" />
        </mxCell>
        <mxCell id="vCwx7-z7giKHeCWRHlMr-57" value="Otro" style="text;html=1;align=center;verticalAlign=middle;resizable=0;points=[];autosize=1;strokeColor=none;fillColor=none;" vertex="1" parent="1">
          <mxGeometry x="490" y="289" width="50" height="30" as="geometry" />
        </mxCell>
        <mxCell id="vCwx7-z7giKHeCWRHlMr-58" value="*" style="text;html=1;align=center;verticalAlign=middle;resizable=0;points=[];autosize=1;strokeColor=none;fillColor=none;" vertex="1" parent="1">
          <mxGeometry x="615" y="292" width="30" height="30" as="geometry" />
        </mxCell>
        <mxCell id="vCwx7-z7giKHeCWRHlMr-61" value="*" style="text;html=1;align=center;verticalAlign=middle;resizable=0;points=[];autosize=1;strokeColor=none;fillColor=none;" vertex="1" parent="1">
          <mxGeometry x="970" y="177.5" width="30" height="30" as="geometry" />
        </mxCell>
        <mxCell id="vCwx7-z7giKHeCWRHlMr-62" value="Fin else" style="text;html=1;align=center;verticalAlign=middle;resizable=0;points=[];autosize=1;strokeColor=none;fillColor=none;" vertex="1" parent="1">
          <mxGeometry x="600" y="300" width="70" height="30" as="geometry" />
        </mxCell>
        <mxCell id="vCwx7-z7giKHeCWRHlMr-64" value="" style="endArrow=classic;html=1;rounded=0;exitX=1;exitY=0;exitDx=0;exitDy=0;entryX=0.008;entryY=0.406;entryDx=0;entryDy=0;entryPerimeter=0;" edge="1" parent="1" source="vCwx7-z7giKHeCWRHlMr-1" target="vCwx7-z7giKHeCWRHlMr-65">
          <mxGeometry width="50" height="50" relative="1" as="geometry">
            <mxPoint x="280" y="158" as="sourcePoint" />
            <mxPoint x="270" y="146" as="targetPoint" />
          </mxGeometry>
        </mxCell>
        <mxCell id="vCwx7-z7giKHeCWRHlMr-65" value="7" style="ellipse;whiteSpace=wrap;html=1;" vertex="1" parent="1">
          <mxGeometry x="280" y="48" width="80" height="70" as="geometry" />
        </mxCell>
        <mxCell id="vCwx7-z7giKHeCWRHlMr-66" value="w" style="text;html=1;align=center;verticalAlign=middle;resizable=0;points=[];autosize=1;strokeColor=none;fillColor=none;" vertex="1" parent="1">
          <mxGeometry x="215" y="58" width="30" height="30" as="geometry" />
        </mxCell>
        <mxCell id="vCwx7-z7giKHeCWRHlMr-69" value="" style="endArrow=classic;html=1;rounded=0;exitX=1.004;exitY=0.387;exitDx=0;exitDy=0;exitPerimeter=0;entryX=0.008;entryY=0.406;entryDx=0;entryDy=0;entryPerimeter=0;" edge="1" parent="1" target="vCwx7-z7giKHeCWRHlMr-70" source="vCwx7-z7giKHeCWRHlMr-65">
          <mxGeometry width="50" height="50" relative="1" as="geometry">
            <mxPoint x="360" y="150" as="sourcePoint" />
            <mxPoint x="420" y="153" as="targetPoint" />
          </mxGeometry>
        </mxCell>
        <mxCell id="vCwx7-z7giKHeCWRHlMr-70" value="9" style="ellipse;whiteSpace=wrap;html=1;" vertex="1" parent="1">
          <mxGeometry x="414" y="45.5" width="80" height="70" as="geometry" />
        </mxCell>
        <mxCell id="vCwx7-z7giKHeCWRHlMr-71" value="h" style="text;html=1;align=center;verticalAlign=middle;resizable=0;points=[];autosize=1;strokeColor=none;fillColor=none;" vertex="1" parent="1">
          <mxGeometry x="373" y="45" width="30" height="30" as="geometry" />
        </mxCell>
        <mxCell id="vCwx7-z7giKHeCWRHlMr-72" value="" style="endArrow=classic;html=1;rounded=0;exitX=1;exitY=0.5;exitDx=0;exitDy=0;entryX=0.008;entryY=0.406;entryDx=0;entryDy=0;entryPerimeter=0;" edge="1" parent="1" target="vCwx7-z7giKHeCWRHlMr-73" source="vCwx7-z7giKHeCWRHlMr-70">
          <mxGeometry width="50" height="50" relative="1" as="geometry">
            <mxPoint x="505" y="157" as="sourcePoint" />
            <mxPoint x="565" y="160" as="targetPoint" />
          </mxGeometry>
        </mxCell>
        <mxCell id="vCwx7-z7giKHeCWRHlMr-73" value="11" style="ellipse;whiteSpace=wrap;html=1;" vertex="1" parent="1">
          <mxGeometry x="560" y="48" width="80" height="70" as="geometry" />
        </mxCell>
        <mxCell id="vCwx7-z7giKHeCWRHlMr-74" value="i" style="text;html=1;align=center;verticalAlign=middle;resizable=0;points=[];autosize=1;strokeColor=none;fillColor=none;" vertex="1" parent="1">
          <mxGeometry x="515" y="58" width="30" height="30" as="geometry" />
        </mxCell>
        <mxCell id="vCwx7-z7giKHeCWRHlMr-75" value="Otro" style="text;html=1;align=center;verticalAlign=middle;resizable=0;points=[];autosize=1;strokeColor=none;fillColor=none;" vertex="1" parent="1">
          <mxGeometry x="140" y="224.5" width="50" height="30" as="geometry" />
        </mxCell>
        <mxCell id="vCwx7-z7giKHeCWRHlMr-76" value="" style="endArrow=classic;html=1;rounded=0;exitX=0.5;exitY=0;exitDx=0;exitDy=0;entryX=0.5;entryY=1;entryDx=0;entryDy=0;" edge="1" parent="1" source="vCwx7-z7giKHeCWRHlMr-73" target="vCwx7-z7giKHeCWRHlMr-90">
          <mxGeometry width="50" height="50" relative="1" as="geometry">
            <mxPoint x="600" y="50" as="sourcePoint" />
            <mxPoint x="600" y="-10" as="targetPoint" />
          </mxGeometry>
        </mxCell>
        <mxCell id="vCwx7-z7giKHeCWRHlMr-77" value="5" style="text;html=1;align=center;verticalAlign=middle;resizable=0;points=[];autosize=1;strokeColor=none;fillColor=none;" vertex="1" parent="1">
          <mxGeometry x="560" y="-2" width="30" height="30" as="geometry" />
        </mxCell>
        <mxCell id="vCwx7-z7giKHeCWRHlMr-79" value="" style="endArrow=classic;html=1;rounded=0;exitX=1;exitY=0.5;exitDx=0;exitDy=0;entryX=0.008;entryY=0.406;entryDx=0;entryDy=0;entryPerimeter=0;" edge="1" parent="1" target="vCwx7-z7giKHeCWRHlMr-80" source="vCwx7-z7giKHeCWRHlMr-73">
          <mxGeometry width="50" height="50" relative="1" as="geometry">
            <mxPoint x="645" y="94" as="sourcePoint" />
            <mxPoint x="705" y="97" as="targetPoint" />
          </mxGeometry>
        </mxCell>
        <mxCell id="vCwx7-z7giKHeCWRHlMr-80" value="14" style="ellipse;whiteSpace=wrap;html=1;" vertex="1" parent="1">
          <mxGeometry x="710" y="48" width="80" height="70" as="geometry" />
        </mxCell>
        <mxCell id="vCwx7-z7giKHeCWRHlMr-81" value="l" style="text;html=1;align=center;verticalAlign=middle;resizable=0;points=[];autosize=1;strokeColor=none;fillColor=none;" vertex="1" parent="1">
          <mxGeometry x="660" y="48" width="30" height="30" as="geometry" />
        </mxCell>
        <mxCell id="vCwx7-z7giKHeCWRHlMr-82" value="" style="endArrow=classic;html=1;rounded=0;exitX=1;exitY=0.5;exitDx=0;exitDy=0;entryX=0.008;entryY=0.406;entryDx=0;entryDy=0;entryPerimeter=0;" edge="1" parent="1" target="vCwx7-z7giKHeCWRHlMr-83" source="vCwx7-z7giKHeCWRHlMr-80">
          <mxGeometry width="50" height="50" relative="1" as="geometry">
            <mxPoint x="790" y="97.5" as="sourcePoint" />
            <mxPoint x="850" y="100.5" as="targetPoint" />
          </mxGeometry>
        </mxCell>
        <mxCell id="vCwx7-z7giKHeCWRHlMr-83" value="" style="ellipse;whiteSpace=wrap;html=1;" vertex="1" parent="1">
          <mxGeometry x="848.75" y="47.5" width="80" height="70" as="geometry" />
        </mxCell>
        <mxCell id="vCwx7-z7giKHeCWRHlMr-84" value="e" style="text;html=1;align=center;verticalAlign=middle;resizable=0;points=[];autosize=1;strokeColor=none;fillColor=none;" vertex="1" parent="1">
          <mxGeometry x="805" y="48" width="30" height="30" as="geometry" />
        </mxCell>
        <mxCell id="vCwx7-z7giKHeCWRHlMr-86" value="15" style="ellipse;whiteSpace=wrap;html=1;" vertex="1" parent="1">
          <mxGeometry x="860" y="56.5" width="57.5" height="54" as="geometry" />
        </mxCell>
        <mxCell id="vCwx7-z7giKHeCWRHlMr-88" value="*" style="text;html=1;align=center;verticalAlign=middle;resizable=0;points=[];autosize=1;strokeColor=none;fillColor=none;" vertex="1" parent="1">
          <mxGeometry x="926.25" y="43.5" width="30" height="30" as="geometry" />
        </mxCell>
        <mxCell id="vCwx7-z7giKHeCWRHlMr-89" value="Fin while" style="text;html=1;align=center;verticalAlign=middle;resizable=0;points=[];autosize=1;strokeColor=none;fillColor=none;" vertex="1" parent="1">
          <mxGeometry x="940" y="59" width="70" height="30" as="geometry" />
        </mxCell>
        <mxCell id="vCwx7-z7giKHeCWRHlMr-90" value="" style="ellipse;whiteSpace=wrap;html=1;" vertex="1" parent="1">
          <mxGeometry x="560" y="-85" width="80" height="70" as="geometry" />
        </mxCell>
        <mxCell id="vCwx7-z7giKHeCWRHlMr-91" value="12" style="ellipse;whiteSpace=wrap;html=1;" vertex="1" parent="1">
          <mxGeometry x="571.25" y="-77" width="57.5" height="54" as="geometry" />
        </mxCell>
        <mxCell id="vCwx7-z7giKHeCWRHlMr-92" value="Fin whi5" style="text;html=1;align=center;verticalAlign=middle;resizable=0;points=[];autosize=1;strokeColor=none;fillColor=none;" vertex="1" parent="1">
          <mxGeometry x="628.75" y="-98" width="70" height="30" as="geometry" />
        </mxCell>
        <mxCell id="vCwx7-z7giKHeCWRHlMr-96" value="" style="endArrow=classic;html=1;rounded=0;exitX=0.5;exitY=0;exitDx=0;exitDy=0;entryX=0.5;entryY=1;entryDx=0;entryDy=0;" edge="1" parent="1" target="vCwx7-z7giKHeCWRHlMr-97">
          <mxGeometry width="50" height="50" relative="1" as="geometry">
            <mxPoint x="179.41" y="98" as="sourcePoint" />
            <mxPoint x="179.41" y="-10" as="targetPoint" />
            <Array as="points">
              <mxPoint x="179.41" y="40" />
            </Array>
          </mxGeometry>
        </mxCell>
        <mxCell id="vCwx7-z7giKHeCWRHlMr-99" style="edgeStyle=orthogonalEdgeStyle;rounded=0;orthogonalLoop=1;jettySize=auto;html=1;" edge="1" parent="1" source="vCwx7-z7giKHeCWRHlMr-97">
          <mxGeometry relative="1" as="geometry">
            <mxPoint x="260" y="-120" as="targetPoint" />
          </mxGeometry>
        </mxCell>
        <mxCell id="vCwx7-z7giKHeCWRHlMr-108" style="edgeStyle=orthogonalEdgeStyle;rounded=0;orthogonalLoop=1;jettySize=auto;html=1;" edge="1" parent="1" source="vCwx7-z7giKHeCWRHlMr-97" target="vCwx7-z7giKHeCWRHlMr-109">
          <mxGeometry relative="1" as="geometry">
            <mxPoint x="180" y="-205" as="targetPoint" />
          </mxGeometry>
        </mxCell>
        <mxCell id="vCwx7-z7giKHeCWRHlMr-97" value="2" style="ellipse;whiteSpace=wrap;html=1;" vertex="1" parent="1">
          <mxGeometry x="140" y="-155" width="80" height="70" as="geometry" />
        </mxCell>
        <mxCell id="vCwx7-z7giKHeCWRHlMr-98" value="i" style="text;html=1;align=center;verticalAlign=middle;resizable=0;points=[];autosize=1;strokeColor=none;fillColor=none;" vertex="1" parent="1">
          <mxGeometry x="150" y="28" width="30" height="30" as="geometry" />
        </mxCell>
        <mxCell id="vCwx7-z7giKHeCWRHlMr-102" style="edgeStyle=orthogonalEdgeStyle;rounded=0;orthogonalLoop=1;jettySize=auto;html=1;" edge="1" parent="1">
          <mxGeometry relative="1" as="geometry">
            <mxPoint x="390" y="-120" as="targetPoint" />
            <mxPoint x="340" y="-120" as="sourcePoint" />
          </mxGeometry>
        </mxCell>
        <mxCell id="vCwx7-z7giKHeCWRHlMr-115" style="edgeStyle=orthogonalEdgeStyle;rounded=0;orthogonalLoop=1;jettySize=auto;html=1;entryX=0.5;entryY=1;entryDx=0;entryDy=0;" edge="1" parent="1" target="vCwx7-z7giKHeCWRHlMr-110">
          <mxGeometry relative="1" as="geometry">
            <mxPoint x="300" y="-160" as="sourcePoint" />
          </mxGeometry>
        </mxCell>
        <mxCell id="vCwx7-z7giKHeCWRHlMr-100" value="3" style="ellipse;whiteSpace=wrap;html=1;aspect=fixed;" vertex="1" parent="1">
          <mxGeometry x="260" y="-165" width="80" height="80" as="geometry" />
        </mxCell>
        <mxCell id="vCwx7-z7giKHeCWRHlMr-101" value="f" style="text;html=1;align=center;verticalAlign=middle;resizable=0;points=[];autosize=1;strokeColor=none;fillColor=none;" vertex="1" parent="1">
          <mxGeometry x="215" y="-167" width="30" height="30" as="geometry" />
        </mxCell>
        <mxCell id="vCwx7-z7giKHeCWRHlMr-103" value="" style="ellipse;whiteSpace=wrap;html=1;aspect=fixed;" vertex="1" parent="1">
          <mxGeometry x="390" y="-165" width="80" height="80" as="geometry" />
        </mxCell>
        <mxCell id="vCwx7-z7giKHeCWRHlMr-104" value="4" style="ellipse;whiteSpace=wrap;html=1;aspect=fixed;" vertex="1" parent="1">
          <mxGeometry x="403" y="-152" width="54" height="54" as="geometry" />
        </mxCell>
        <mxCell id="vCwx7-z7giKHeCWRHlMr-105" value="Fin ifi" style="text;html=1;align=center;verticalAlign=middle;resizable=0;points=[];autosize=1;strokeColor=none;fillColor=none;" vertex="1" parent="1">
          <mxGeometry x="470" y="-155" width="50" height="30" as="geometry" />
        </mxCell>
        <mxCell id="vCwx7-z7giKHeCWRHlMr-106" value="*" style="text;html=1;align=center;verticalAlign=middle;resizable=0;points=[];autosize=1;strokeColor=none;fillColor=none;" vertex="1" parent="1">
          <mxGeometry x="460" y="-177" width="30" height="30" as="geometry" />
        </mxCell>
        <mxCell id="vCwx7-z7giKHeCWRHlMr-107" value="i" style="text;html=1;align=center;verticalAlign=middle;resizable=0;points=[];autosize=1;strokeColor=none;fillColor=none;" vertex="1" parent="1">
          <mxGeometry x="345" y="-157" width="30" height="30" as="geometry" />
        </mxCell>
        <mxCell id="vCwx7-z7giKHeCWRHlMr-109" value="6" style="ellipse;whiteSpace=wrap;html=1;aspect=fixed;" vertex="1" parent="1">
          <mxGeometry x="140" y="-285" width="80" height="80" as="geometry" />
        </mxCell>
        <mxCell id="vCwx7-z7giKHeCWRHlMr-110" value="" style="ellipse;whiteSpace=wrap;html=1;aspect=fixed;" vertex="1" parent="1">
          <mxGeometry x="260" y="-285" width="80" height="80" as="geometry" />
        </mxCell>
        <mxCell id="vCwx7-z7giKHeCWRHlMr-111" value="5" style="ellipse;whiteSpace=wrap;html=1;aspect=fixed;" vertex="1" parent="1">
          <mxGeometry x="273" y="-272" width="54" height="54" as="geometry" />
        </mxCell>
        <mxCell id="vCwx7-z7giKHeCWRHlMr-117" value="Fin if" style="text;html=1;align=center;verticalAlign=middle;resizable=0;points=[];autosize=1;strokeColor=none;fillColor=none;" vertex="1" parent="1">
          <mxGeometry x="337" y="-293" width="50" height="30" as="geometry" />
        </mxCell>
        <mxCell id="vCwx7-z7giKHeCWRHlMr-123" value="Otro" style="text;html=1;align=center;verticalAlign=middle;resizable=0;points=[];autosize=1;strokeColor=none;fillColor=none;" vertex="1" parent="1">
          <mxGeometry x="115" y="-197" width="50" height="30" as="geometry" />
        </mxCell>
        <mxCell id="vCwx7-z7giKHeCWRHlMr-127" style="edgeStyle=orthogonalEdgeStyle;rounded=0;orthogonalLoop=1;jettySize=auto;html=1;exitX=0.5;exitY=0;exitDx=0;exitDy=0;" edge="1" parent="1" target="vCwx7-z7giKHeCWRHlMr-128" source="vCwx7-z7giKHeCWRHlMr-65">
          <mxGeometry relative="1" as="geometry">
            <mxPoint x="320" y="25.5" as="targetPoint" />
            <mxPoint x="320" y="50" as="sourcePoint" />
          </mxGeometry>
        </mxCell>
        <mxCell id="vCwx7-z7giKHeCWRHlMr-128" value="8" style="ellipse;whiteSpace=wrap;html=1;aspect=fixed;" vertex="1" parent="1">
          <mxGeometry x="280" y="-64" width="80" height="80" as="geometry" />
        </mxCell>
        <mxCell id="vCwx7-z7giKHeCWRHlMr-129" value="Otro" style="text;html=1;align=center;verticalAlign=middle;resizable=0;points=[];autosize=1;strokeColor=none;fillColor=none;" vertex="1" parent="1">
          <mxGeometry x="250" y="15.5" width="50" height="30" as="geometry" />
        </mxCell>
        <mxCell id="vCwx7-z7giKHeCWRHlMr-132" style="edgeStyle=orthogonalEdgeStyle;rounded=0;orthogonalLoop=1;jettySize=auto;html=1;exitX=0.5;exitY=0;exitDx=0;exitDy=0;" edge="1" parent="1" target="vCwx7-z7giKHeCWRHlMr-133">
          <mxGeometry relative="1" as="geometry">
            <mxPoint x="454" y="22.5" as="targetPoint" />
            <mxPoint x="454" y="45" as="sourcePoint" />
          </mxGeometry>
        </mxCell>
        <mxCell id="vCwx7-z7giKHeCWRHlMr-133" value="10" style="ellipse;whiteSpace=wrap;html=1;aspect=fixed;" vertex="1" parent="1">
          <mxGeometry x="414" y="-67" width="80" height="80" as="geometry" />
        </mxCell>
        <mxCell id="vCwx7-z7giKHeCWRHlMr-134" value="Otro" style="text;html=1;align=center;verticalAlign=middle;resizable=0;points=[];autosize=1;strokeColor=none;fillColor=none;" vertex="1" parent="1">
          <mxGeometry x="384" y="12.5" width="50" height="30" as="geometry" />
        </mxCell>
        <mxCell id="vCwx7-z7giKHeCWRHlMr-135" style="edgeStyle=orthogonalEdgeStyle;rounded=0;orthogonalLoop=1;jettySize=auto;html=1;exitX=0.763;exitY=0.075;exitDx=0;exitDy=0;exitPerimeter=0;" edge="1" parent="1" target="vCwx7-z7giKHeCWRHlMr-136" source="vCwx7-z7giKHeCWRHlMr-73">
          <mxGeometry relative="1" as="geometry">
            <mxPoint x="787" y="-16.5" as="targetPoint" />
            <mxPoint x="787" y="6" as="sourcePoint" />
            <Array as="points">
              <mxPoint x="621" y="20" />
              <mxPoint x="760" y="20" />
            </Array>
          </mxGeometry>
        </mxCell>
        <mxCell id="vCwx7-z7giKHeCWRHlMr-136" value="13" style="ellipse;whiteSpace=wrap;html=1;aspect=fixed;" vertex="1" parent="1">
          <mxGeometry x="747" y="-106" width="80" height="80" as="geometry" />
        </mxCell>
        <mxCell id="vCwx7-z7giKHeCWRHlMr-137" value="Otro" style="text;html=1;align=center;verticalAlign=middle;resizable=0;points=[];autosize=1;strokeColor=none;fillColor=none;" vertex="1" parent="1">
          <mxGeometry x="717" y="-26.5" width="50" height="30" as="geometry" />
        </mxCell>
        <mxCell id="vCwx7-z7giKHeCWRHlMr-138" value="8" style="ellipse;whiteSpace=wrap;html=1;aspect=fixed;" vertex="1" parent="1">
          <mxGeometry x="260" y="322" width="78" height="78" as="geometry" />
        </mxCell>
        <mxCell id="vCwx7-z7giKHeCWRHlMr-140" value="Otro" style="text;html=1;align=center;verticalAlign=middle;resizable=0;points=[];autosize=1;strokeColor=none;fillColor=none;" vertex="1" parent="1">
          <mxGeometry x="240" y="282" width="50" height="30" as="geometry" />
        </mxCell>
        <mxCell id="vCwx7-z7giKHeCWRHlMr-141" style="edgeStyle=orthogonalEdgeStyle;rounded=0;orthogonalLoop=1;jettySize=auto;html=1;entryX=0.5;entryY=0;entryDx=0;entryDy=0;" edge="1" parent="1" target="vCwx7-z7giKHeCWRHlMr-142">
          <mxGeometry relative="1" as="geometry">
            <mxPoint x="433" y="278" as="sourcePoint" />
          </mxGeometry>
        </mxCell>
        <mxCell id="vCwx7-z7giKHeCWRHlMr-142" value="8" style="ellipse;whiteSpace=wrap;html=1;aspect=fixed;" vertex="1" parent="1">
          <mxGeometry x="392" y="319" width="78" height="78" as="geometry" />
        </mxCell>
        <mxCell id="vCwx7-z7giKHeCWRHlMr-143" value="Otro" style="text;html=1;align=center;verticalAlign=middle;resizable=0;points=[];autosize=1;strokeColor=none;fillColor=none;" vertex="1" parent="1">
          <mxGeometry x="373" y="282" width="50" height="30" as="geometry" />
        </mxCell>
        <mxCell id="vCwx7-z7giKHeCWRHlMr-144" style="edgeStyle=orthogonalEdgeStyle;rounded=0;orthogonalLoop=1;jettySize=auto;html=1;entryX=0.5;entryY=0;entryDx=0;entryDy=0;" edge="1" parent="1" target="vCwx7-z7giKHeCWRHlMr-145">
          <mxGeometry relative="1" as="geometry">
            <mxPoint x="692" y="275" as="sourcePoint" />
          </mxGeometry>
        </mxCell>
        <mxCell id="vCwx7-z7giKHeCWRHlMr-145" value="" style="ellipse;whiteSpace=wrap;html=1;aspect=fixed;" vertex="1" parent="1">
          <mxGeometry x="650" y="312" width="80" height="80" as="geometry" />
        </mxCell>
        <mxCell id="vCwx7-z7giKHeCWRHlMr-146" value="Otro" style="text;html=1;align=center;verticalAlign=middle;resizable=0;points=[];autosize=1;strokeColor=none;fillColor=none;" vertex="1" parent="1">
          <mxGeometry x="632" y="279" width="50" height="30" as="geometry" />
        </mxCell>
        <mxCell id="vCwx7-z7giKHeCWRHlMr-56" value="12" style="ellipse;whiteSpace=wrap;html=1;aspect=fixed;" vertex="1" parent="1">
          <mxGeometry x="660" y="322" width="60" height="60" as="geometry" />
        </mxCell>
      </root>
    </mxGraphModel>
  </diagram>
</mxfile>
